<svg width="36" height="48" viewBox="0 0 36 48" fill="none" xmlns="http://www.w3.org/2000/svg">
<path d="M35.9995 0.345512C35.9995 0.0981489 35.7045 -0.0689884 35.437 0.0279512L27.2858 2.91943C26.2787 3.2771 25.6218 4.11279 25.6218 5.04207V43.1093C25.6218 43.3566 25.9168 43.5238 26.1843 43.4268L35.9995 39.9437" fill="#E8C871"/>
<path d="M13.3715 47.9728L21.5226 45.0814C22.5297 44.7237 23.1867 43.888 23.1867 42.9587V4.89153C23.1867 4.64417 22.8917 4.47703 22.6241 4.57397L14.473 7.46879C13.4659 7.82646 12.809 8.66215 12.809 9.59143V47.6553C12.809 47.8993 13.104 48.0664 13.3715 47.9728Z" fill="#E8C871"/>
<path d="M1.66406 45.0548L9.81518 47.9462C10.0827 48.0398 10.3777 47.8727 10.3777 47.6287V9.30745C10.3777 8.37817 9.72077 7.54248 8.71368 7.18481L0.562554 4.29333C0.295046 4.19639 0 4.36353 0 4.61089V42.9321C0 43.8614 0.656968 44.6971 1.66406 45.0548Z" fill="#E8C871"/>
</svg>
