<svg width="24" height="25" viewBox="0 0 24 25" fill="none" xmlns="http://www.w3.org/2000/svg">
<g clip-path="url(#clip0_158_6041)">
<path d="M12 24.4797C18.6274 24.4797 24 19.1072 24 12.4797C24 5.85232 18.6274 0.479736 12 0.479736C5.37258 0.479736 0 5.85232 0 12.4797C0 19.1072 5.37258 24.4797 12 24.4797Z" fill="#F0F0F0"/>
<path d="M11.4779 12.4797H23.9996C23.9996 11.3966 23.8552 10.3474 23.5862 9.34924H11.4779V12.4797Z" fill="#D80027"/>
<path d="M11.4779 6.21822H22.2383C21.5038 5.01953 20.5645 3.96002 19.4694 3.08777H11.4779V6.21822Z" fill="#D80027"/>
<path d="M11.9997 24.4797C14.8239 24.4797 17.4197 23.5035 19.4695 21.871H4.52991C6.57975 23.5035 9.17555 24.4797 11.9997 24.4797Z" fill="#D80027"/>
<path d="M1.76104 18.7396H22.2385C22.8282 17.7773 23.2856 16.7254 23.5864 15.6091H0.413147C0.713944 16.7254 1.1713 17.7773 1.76104 18.7396Z" fill="#D80027"/>
<path d="M5.55863 2.35371H6.65217L5.63498 3.09269L6.02353 4.28842L5.00639 3.54944L3.98925 4.28842L4.32487 3.25544C3.42928 4.00146 2.64431 4.87549 1.99744 5.84936H2.34783L1.70034 6.31975C1.59947 6.48803 1.50272 6.65899 1.41 6.83247L1.71919 7.78408L1.14234 7.36497C0.998953 7.66877 0.867797 7.97941 0.749906 8.29652L1.09055 9.34502H2.34783L1.33064 10.084L1.71919 11.2797L0.702047 10.5408L0.0927656 10.9834C0.0317812 11.4737 0 11.973 0 12.4797H12C12 5.85236 12 5.07105 12 0.479736C9.62944 0.479736 7.41961 1.16739 5.55863 2.35371ZM6.02353 11.2797L5.00639 10.5408L3.98925 11.2797L4.3778 10.084L3.36061 9.34502H4.61789L5.00639 8.14928L5.39489 9.34502H6.65217L5.63498 10.084L6.02353 11.2797ZM5.63498 6.58835L6.02353 7.78408L5.00639 7.0451L3.98925 7.78408L4.3778 6.58835L3.36061 5.84936H4.61789L5.00639 4.65363L5.39489 5.84936H6.65217L5.63498 6.58835ZM10.3279 11.2797L9.31073 10.5408L8.29359 11.2797L8.68214 10.084L7.66495 9.34502H8.92223L9.31073 8.14928L9.69923 9.34502H10.9565L9.93933 10.084L10.3279 11.2797ZM9.93933 6.58835L10.3279 7.78408L9.31073 7.0451L8.29359 7.78408L8.68214 6.58835L7.66495 5.84936H8.92223L9.31073 4.65363L9.69923 5.84936H10.9565L9.93933 6.58835ZM9.93933 3.09269L10.3279 4.28842L9.31073 3.54944L8.29359 4.28842L8.68214 3.09269L7.66495 2.35371H8.92223L9.31073 1.15797L9.69923 2.35371H10.9565L9.93933 3.09269Z" fill="#0052B4"/>
</g>
<defs>
<clipPath id="clip0_158_6041">
<rect width="24" height="24" fill="white" transform="translate(0 0.479736)"/>
</clipPath>
</defs>
</svg>
